<svg width="1024" height="1024" viewBox="0 0 1024 1024" fill="none" xmlns="http://www.w3.org/2000/svg">
<rect width="1024" height="1024" fill="#003399"/>
<path d="M295 108.618L312.23 161.645L312.342 161.991H312.705H368.461L323.354 194.763L323.06 194.977L323.172 195.322L340.401 248.349L295.294 215.577L295 215.363L294.706 215.577L249.599 248.349L266.828 195.322L266.94 194.977L266.646 194.763L221.539 161.991H277.295H277.658L277.77 161.645L295 108.618ZM262.669 195.727L233.893 172.203L265.765 195.359L253.03 234.553L262.836 196.238L262.916 195.929L262.669 195.727ZM254.627 249.158H250.186L295 216.599L339.814 249.158H335.688L295.281 221.721L294.999 221.53L294.718 221.722L254.627 249.158ZM326.849 196.241L336.508 233.13L324.235 195.359L355.141 172.904L327.017 195.726L326.767 195.929L326.849 196.241Z" fill="#FFCC00" stroke="black"/>
<path d="M729.811 771.771L747.04 824.798L747.153 825.144H747.516H803.272L758.164 857.916L757.87 858.13L757.983 858.475L775.212 911.503L730.105 878.73L729.811 878.517L729.517 878.73L684.409 911.503L701.639 858.475L701.751 858.13L701.457 857.916L656.35 825.144H712.106H712.469L712.581 824.798L729.811 771.771ZM697.479 858.88L668.704 835.356L700.576 858.512L687.841 897.706L697.647 859.391L697.726 859.082L697.479 858.88ZM689.438 912.312H684.997L729.811 879.753L774.624 912.312H770.498L730.092 884.875L729.81 884.683L729.528 884.876L689.438 912.312ZM761.66 859.394L771.319 896.284L759.046 858.512L789.952 836.058L761.828 858.879L761.578 859.082L761.66 859.394Z" fill="#FFCC00" stroke="black"/>
<path d="M155 251.618L172.23 304.645L172.342 304.991H172.705H228.461L183.354 337.763L183.06 337.977L183.172 338.322L200.401 391.349L155.294 358.577L155 358.363L154.706 358.577L109.599 391.349L126.828 338.322L126.94 337.977L126.646 337.763L81.5388 304.991H137.295H137.658L137.77 304.645L155 251.618ZM122.669 338.727L93.8929 315.203L125.765 338.359L113.03 377.553L122.836 339.238L122.916 338.929L122.669 338.727ZM114.627 392.158H110.186L155 359.599L199.814 392.158H195.688L155.281 364.721L154.999 364.53L154.718 364.722L114.627 392.158ZM186.849 339.241L196.508 376.13L184.235 338.359L215.141 315.904L187.017 338.726L186.767 338.929L186.849 339.241Z" fill="#FFCC00" stroke="black"/>
<path d="M869.538 628.505L886.768 681.532L886.88 681.877H887.243H942.999L897.892 714.65L897.598 714.864L897.71 715.209L914.94 768.236L869.832 735.464L869.538 735.25L869.244 735.464L824.137 768.236L841.366 715.209L841.478 714.864L841.185 714.65L796.077 681.877H851.833H852.196L852.309 681.532L869.538 628.505ZM837.207 715.614L808.431 692.089L840.303 715.246L827.568 754.439L837.375 716.125L837.454 715.816L837.207 715.614ZM829.165 769.045H824.724L869.538 736.486L914.352 769.045H910.226L869.819 741.608L869.537 741.417L869.256 741.609L829.165 769.045ZM901.387 716.128L911.046 753.017L898.773 715.246L929.679 692.791L901.556 715.613L901.305 715.816L901.387 716.128Z" fill="#FFCC00" stroke="black"/>
<path d="M110 442.618L127.23 495.645L127.342 495.991H127.705H183.461L138.354 528.763L138.06 528.977L138.172 529.322L155.401 582.349L110.294 549.577L110 549.363L109.706 549.577L64.5985 582.349L81.8281 529.322L81.9403 528.977L81.6464 528.763L36.5388 495.991H92.2949H92.6582L92.7704 495.645L110 442.618ZM77.6686 529.727L48.8929 506.203L80.7648 529.359L68.0299 568.553L77.8365 530.238L77.9156 529.929L77.6686 529.727ZM69.6269 583.158H65.1863L110 550.599L154.814 583.158H150.688L110.281 555.721L109.999 555.53L109.718 555.722L69.6269 583.158ZM141.849 530.241L151.508 567.13L139.235 529.359L170.141 506.904L142.017 529.726L141.767 529.929L141.849 530.241Z" fill="#FFCC00" stroke="black"/>
<path d="M914.174 437.419L931.404 490.447L931.516 490.792H931.879H987.635L942.528 523.565L942.234 523.778L942.346 524.124L959.576 577.151L914.468 544.378L914.174 544.165L913.88 544.378L868.773 577.151L886.002 524.124L886.115 523.778L885.821 523.565L840.713 490.792H896.469H896.832L896.945 490.447L914.174 437.419ZM881.843 524.528L853.067 501.004L884.939 524.16L872.204 563.354L882.011 525.04L882.09 524.73L881.843 524.528ZM873.801 577.96H869.361L914.174 545.401L958.988 577.96H954.862L914.455 550.523L914.173 550.331L913.892 550.524L873.801 577.96ZM946.023 525.042L955.682 561.932L943.41 524.16L974.315 501.706L946.192 524.527L945.941 524.73L946.023 525.042Z" fill="#FFCC00" stroke="black"/>
<path d="M155 635.618L172.23 688.645L172.342 688.991H172.705H228.461L183.354 721.763L183.06 721.977L183.172 722.322L200.401 775.349L155.294 742.577L155 742.363L154.706 742.577L109.599 775.349L126.828 722.322L126.94 721.977L126.646 721.763L81.5388 688.991H137.295H137.658L137.77 688.645L155 635.618ZM122.669 722.727L93.8929 699.203L125.765 722.359L113.03 761.553L122.836 723.238L122.916 722.929L122.669 722.727ZM114.627 776.158H110.186L155 743.599L199.814 776.158H195.688L155.281 748.721L154.999 748.53L154.718 748.722L114.627 776.158ZM186.849 723.241L196.508 760.13L184.235 722.359L215.141 699.904L187.017 722.726L186.767 722.929L186.849 723.241Z" fill="#FFCC00" stroke="black"/>
<path d="M868.807 244.505L886.036 297.533L886.148 297.878H886.512H942.268L897.16 330.651L896.866 330.864L896.979 331.21L914.208 384.237L869.101 351.464L868.807 351.251L868.513 351.464L823.405 384.237L840.635 331.21L840.747 330.864L840.453 330.651L795.345 297.878H851.102H851.465L851.577 297.533L868.807 244.505ZM836.475 331.614L807.7 308.09L839.571 331.246L826.837 370.44L836.643 332.126L836.722 331.816L836.475 331.614ZM828.434 385.046H823.993L868.807 352.487L913.62 385.046H909.494L869.088 357.609L868.806 357.417L868.524 357.61L828.434 385.046ZM900.655 332.128L910.315 369.018L898.042 331.246L928.948 308.792L900.824 331.613L900.574 331.816L900.655 332.128Z" fill="#FFCC00" stroke="black"/>
<path d="M512 41.618L529.23 94.6452L529.342 94.9907H529.705H585.461L540.354 127.763L540.06 127.977L540.172 128.322L557.401 181.349L512.294 148.577L512 148.363L511.706 148.577L466.599 181.349L483.828 128.322L483.94 127.977L483.646 127.763L438.539 94.9907H494.295H494.658L494.77 94.6452L512 41.618ZM479.669 128.727L450.893 105.203L482.765 128.359L470.03 167.553L479.836 129.238L479.916 128.929L479.669 128.727ZM471.627 182.158H467.186L512 149.599L556.814 182.158H552.688L512.281 154.721L511.999 154.53L511.718 154.722L471.627 182.158ZM543.849 129.241L553.508 166.13L541.235 128.359L572.141 105.904L544.017 128.726L543.767 128.929L543.849 129.241Z" fill="#FFCC00" stroke="black"/>
<path d="M512.939 839.184L530.169 892.212L530.281 892.557H530.644H586.4L541.293 925.33L540.999 925.543L541.111 925.889L558.34 978.916L513.233 946.143L512.939 945.93L512.645 946.143L467.537 978.916L484.767 925.889L484.879 925.543L484.585 925.33L439.478 892.557H495.234H495.597L495.709 892.212L512.939 839.184ZM480.608 926.293L451.832 902.769L483.704 925.925L470.969 965.119L480.775 926.804L480.855 926.495L480.608 926.293ZM472.566 979.725H468.125L512.939 947.166L557.753 979.725H553.627L513.22 952.288L512.938 952.096L512.657 952.289L472.566 979.725ZM544.788 926.807L554.447 963.697L542.174 925.925L573.08 903.471L544.956 926.292L544.706 926.495L544.788 926.807Z" fill="#FFCC00" stroke="black"/>
<path d="M295 778.618L312.23 831.645L312.342 831.991H312.705H368.461L323.354 864.763L323.06 864.977L323.172 865.322L340.401 918.349L295.294 885.577L295 885.363L294.706 885.577L249.599 918.349L266.828 865.322L266.94 864.977L266.646 864.763L221.539 831.991H277.295H277.658L277.77 831.645L295 778.618ZM262.669 865.727L233.893 842.203L265.765 865.359L253.03 904.553L262.836 866.238L262.916 865.929L262.669 865.727ZM254.627 919.158H250.186L295 886.599L339.814 919.158H335.688L295.281 891.721L294.999 891.53L294.718 891.722L254.627 919.158ZM326.849 866.241L336.508 903.13L324.235 865.359L355.141 842.904L327.017 865.726L326.767 865.929L326.849 866.241Z" fill="#FFCC00" stroke="black"/>
<path d="M728.534 101.772L745.764 154.8L745.876 155.145H746.24H801.996L756.888 187.918L756.594 188.131L756.706 188.477L773.936 241.504L728.828 208.731L728.534 208.518L728.241 208.731L683.133 241.504L700.362 188.477L700.475 188.131L700.181 187.918L655.073 155.145H710.829H711.193L711.305 154.8L728.534 101.772ZM696.203 188.881L667.427 165.357L699.299 188.513L686.564 227.707L696.371 189.392L696.45 189.083L696.203 188.881ZM688.161 242.313H683.721L728.534 209.754L773.348 242.313H769.222L728.815 214.876L728.533 214.684L728.252 214.877L688.161 242.313ZM760.383 189.395L770.042 226.285L757.77 188.513L788.675 166.059L760.552 188.88L760.302 189.083L760.383 189.395Z" fill="#FFCC00" stroke="black"/>
<path d="M346.859 627.173L346.98 627.5H347.328H372.359H372.708L372.829 627.173L447.641 424.251L447.889 423.578H447.172H420.594H420.239L420.122 423.913L359.844 595.916L299.566 423.913L299.448 423.578H299.094H272.516H271.798L272.046 424.251L346.859 627.173ZM431.235 626.826L430.984 627.5H431.703H458.281H458.635L458.753 627.167L479.166 569.422H560.162L580.575 627.167L580.693 627.5H581.047H607.625H608.344L608.094 626.826L532.719 423.904L532.598 423.578H532.25H507.219H506.871L506.75 423.904L431.235 626.826ZM653.672 627V627.5H654.172H679.484H679.984V627V447.359H743.469H743.969V446.859V424.078V423.578H743.469H590.188H589.688V424.078V446.859V447.359H590.188H653.672V627ZM487.254 546.906L519.734 455.157L552.214 546.906H487.254Z" fill="#FFCC00" stroke="black"/>
</svg>
