<svg width="374" height="260" viewBox="0 0 374 260" fill="none" xmlns="http://www.w3.org/2000/svg">
<rect width="374" height="260" fill="white"/>
<path d="M302 15H72V245H302V15Z" fill="#003399"/>
<path d="M138.26 39.3966L142.13 51.307L142.155 51.3847H142.236H154.76L144.628 58.7456L144.562 58.7937L144.587 58.8712L148.457 70.7815L138.326 63.4206L138.26 63.3726L138.194 63.4206L128.062 70.7815L131.932 58.8712L131.957 58.7937L131.891 58.7456L121.76 51.3847H134.283H134.365L134.39 51.307L138.26 39.3966ZM130.998 58.9621L124.535 53.6784L131.693 58.8795L128.833 67.6828L131.035 59.0769L131.053 59.0075L130.998 58.9621ZM129.192 70.9632H128.194L138.26 63.6502L148.325 70.9632H147.399L138.323 64.8006L138.26 64.7577L138.196 64.8008L129.192 70.9632ZM145.413 59.0776L147.583 67.3632L144.826 58.8795L151.768 53.8359L145.451 58.9619L145.395 59.0075L145.413 59.0776Z" fill="#FFCC00" stroke="black"/>
<path d="M235.922 188.347L239.792 200.257L239.818 200.335H239.899H252.422L242.291 207.696L242.225 207.744L242.25 207.822L246.12 219.732L235.988 212.371L235.922 212.323L235.856 212.371L225.725 219.732L229.595 207.822L229.62 207.744L229.554 207.696L219.422 200.335H231.946H232.027L232.052 200.257L235.922 188.347ZM228.66 207.913L222.197 202.629L229.356 207.83L226.496 216.633L228.698 208.027L228.716 207.958L228.66 207.913ZM226.854 219.914H225.857L235.922 212.601L245.988 219.914H245.061L235.986 213.751L235.922 213.708L235.859 213.751L226.854 219.914ZM243.076 208.028L245.245 216.314L242.489 207.83L249.431 202.786L243.114 207.912L243.058 207.958L243.076 208.028Z" fill="#FFCC00" stroke="black"/>
<path d="M106.814 71.5158L110.684 83.4261L110.71 83.5038H110.791H123.314L113.183 90.8647L113.117 90.9128L113.142 90.9903L117.012 102.901L106.881 95.5398L106.814 95.4917L106.748 95.5398L96.617 102.901L100.487 90.9903L100.512 90.9128L100.446 90.8647L90.3144 83.5038H102.838H102.919L102.944 83.4261L106.814 71.5158ZM99.5526 91.0813L93.0892 85.7976L100.248 90.9986L97.3876 99.8019L99.5901 91.196L99.6081 91.1266L99.5526 91.0813ZM97.7463 103.082H96.7488L106.814 95.7693L116.88 103.082H115.953L106.878 96.9198L106.814 96.8769L106.751 96.92L97.7463 103.082ZM113.968 91.1967L116.138 99.4823L113.381 90.9986L120.323 85.955L114.006 91.081L113.95 91.1266L113.968 91.1967Z" fill="#FFCC00" stroke="black"/>
<path d="M267.306 156.168L271.176 168.078L271.202 168.156H271.283H283.806L273.675 175.517L273.609 175.565L273.634 175.643L277.504 187.553L267.372 180.192L267.306 180.144L267.24 180.192L257.109 187.553L260.979 175.643L261.004 175.565L260.938 175.517L250.806 168.156H263.33H263.411L263.437 168.078L267.306 156.168ZM260.045 175.734L253.581 170.45L260.74 175.651L257.88 184.454L260.082 175.848L260.1 175.779L260.045 175.734ZM258.238 187.735H257.241L267.306 180.422L277.372 187.735H276.445L267.369 181.572L267.306 181.529L267.243 181.572L258.238 187.735ZM274.46 175.849L276.629 184.135L273.873 175.651L280.815 170.607L274.498 175.733L274.442 175.779L274.46 175.849Z" fill="#FFCC00" stroke="black"/>
<path d="M96.707 114.416L100.577 126.327L100.602 126.404H100.684H113.207L103.076 133.765L103.01 133.813L103.035 133.891L106.905 145.801L96.7731 138.44L96.707 138.392L96.641 138.44L86.5094 145.801L90.3794 133.891L90.4046 133.813L90.3386 133.765L80.207 126.404H92.7303H92.8119L92.8371 126.327L96.707 114.416ZM89.4451 133.982L82.9818 128.698L90.1405 133.899L87.2802 142.702L89.4828 134.096L89.5006 134.027L89.4451 133.982ZM87.6389 145.983H86.6415L96.707 138.67L106.773 145.983H105.846L96.7702 139.82L96.7068 139.777L96.6437 139.82L87.6389 145.983ZM103.861 134.097L106.03 142.383L103.274 133.899L110.215 128.855L103.898 133.981L103.842 134.027L103.861 134.097Z" fill="#FFCC00" stroke="black"/>
<path d="M277.332 113.248L281.202 125.159L281.227 125.236H281.309H293.832L283.701 132.598L283.635 132.645L283.66 132.723L287.53 144.634L277.398 137.272L277.332 137.225L277.266 137.272L267.135 144.634L271.004 132.723L271.03 132.645L270.964 132.598L260.832 125.236H273.355H273.437L273.462 125.159L277.332 113.248ZM270.07 132.814L263.607 127.53L270.766 132.731L267.905 141.535L270.108 132.929L270.126 132.859L270.07 132.814ZM268.264 144.815H267.267L277.332 137.502L287.398 144.815H286.471L277.395 138.653L277.332 138.61L277.269 138.653L268.264 144.815ZM284.486 132.929L286.655 141.215L283.899 132.731L290.84 127.688L284.524 132.814L284.467 132.859L284.486 132.929Z" fill="#FFCC00" stroke="black"/>
<path d="M106.814 157.766L110.684 169.676L110.71 169.754H110.791H123.314L113.183 177.115L113.117 177.163L113.142 177.24L117.012 189.151L106.881 181.79L106.814 181.742L106.748 181.79L96.617 189.151L100.487 177.24L100.512 177.163L100.446 177.115L90.3144 169.754H102.838H102.919L102.944 169.676L106.814 157.766ZM99.5526 177.331L93.0892 172.048L100.248 177.249L97.3876 186.052L99.5901 177.446L99.6081 177.377L99.5526 177.331ZM97.7463 189.332H96.7488L106.814 182.019L116.88 189.332H115.953L106.878 183.17L106.814 183.127L106.751 183.17L97.7463 189.332ZM113.968 177.447L116.138 185.732L113.381 177.249L120.323 172.205L114.006 177.331L113.95 177.377L113.968 177.447Z" fill="#FFCC00" stroke="black"/>
<path d="M267.142 69.9181L271.012 81.8287L271.037 81.9062H271.119H283.642L273.511 89.2673L273.445 89.3152L273.47 89.3929L277.34 101.303L267.208 93.9421L267.142 93.8943L267.076 93.9421L256.944 101.303L260.815 89.3929L260.84 89.3152L260.774 89.2673L250.642 81.9062H263.165H263.247L263.272 81.8287L267.142 69.9181ZM259.88 89.4836L253.417 84.1999L260.576 89.401L257.715 98.2043L259.918 89.5986L259.936 89.529L259.88 89.4836ZM258.074 101.485H257.077L267.142 94.1719L277.208 101.485H276.281L267.205 95.3223L267.142 95.2792L267.079 95.3225L258.074 101.485ZM274.296 89.5991L276.465 97.8849L273.709 89.401L280.65 84.3576L274.334 89.4834L274.277 89.529L274.296 89.5991Z" fill="#FFCC00" stroke="black"/>
<path d="M187 24.3478L190.87 36.2582L190.895 36.3358H190.977H203.5L193.369 43.6968L193.303 43.7448L193.328 43.8223L197.198 55.7327L187.066 48.3718L187 48.3237L186.934 48.3718L176.803 55.7327L180.672 43.8223L180.697 43.7448L180.631 43.6968L170.5 36.3358H183.023H183.105L183.13 36.2582L187 24.3478ZM179.738 43.9133L173.275 38.6296L180.434 43.8306L177.573 52.634L179.776 44.0281L179.794 43.9586L179.738 43.9133ZM177.932 55.9144H176.934L187 48.6013L197.066 55.9144H196.139L187.063 49.7518L187 49.7089L186.937 49.752L177.932 55.9144ZM194.154 44.0287L196.323 52.3143L193.566 43.8306L200.508 38.787L194.191 43.9131L194.135 43.9586L194.154 44.0287Z" fill="#FFCC00" stroke="black"/>
<path d="M187.211 203.489L191.081 215.399L191.106 215.477H191.188H203.711L193.58 222.838L193.513 222.886L193.539 222.963L197.408 234.874L187.277 227.513L187.211 227.465L187.145 227.513L177.013 234.874L180.883 222.963L180.908 222.886L180.842 222.838L170.711 215.477H183.234H183.316L183.341 215.399L187.211 203.489ZM179.949 223.054L173.486 217.77L180.644 222.971L177.784 231.775L179.987 223.169L180.005 223.099L179.949 223.054ZM178.143 235.055H177.145L187.211 227.742L197.277 235.055H196.35L187.274 228.893L187.211 228.85L187.148 228.893L178.143 235.055ZM194.365 223.17L196.534 231.455L193.777 222.971L200.719 217.928L194.402 223.054L194.346 223.099L194.365 223.17Z" fill="#FFCC00" stroke="black"/>
<path d="M138.26 189.885L142.13 201.795L142.155 201.873H142.236H154.76L144.628 209.234L144.562 209.282L144.587 209.359L148.457 221.27L138.326 213.909L138.26 213.861L138.194 213.909L128.062 221.27L131.932 209.359L131.957 209.282L131.891 209.234L121.76 201.873H134.283H134.365L134.39 201.795L138.26 189.885ZM130.998 209.45L124.535 204.167L131.693 209.368L128.833 218.171L131.035 209.565L131.053 209.496L130.998 209.45ZM129.192 221.452H128.194L138.26 214.138L148.325 221.452H147.399L138.323 215.289L138.26 215.246L138.196 215.289L129.192 221.452ZM145.413 209.566L147.583 217.851L144.826 209.368L151.768 204.324L145.451 209.45L145.395 209.496L145.413 209.566Z" fill="#FFCC00" stroke="black"/>
<path d="M235.636 37.8589L239.506 49.7695L239.531 49.847H239.613H252.136L242.004 57.2081L241.938 57.256L241.963 57.3337L245.833 69.2441L235.702 61.8829L235.636 61.8351L235.57 61.8829L225.438 69.2441L229.308 57.3337L229.333 57.256L229.267 57.2081L219.136 49.847H231.659H231.741L231.766 49.7695L235.636 37.8589ZM228.374 57.4244L221.91 52.1407L229.069 57.3418L226.209 66.1451L228.411 57.5392L228.429 57.4698L228.374 57.4244ZM226.567 69.4258H225.57L235.636 62.1127L245.701 69.4258H244.774L235.699 63.2632L235.635 63.22L235.572 63.2634L226.567 69.4258ZM242.789 57.5399L244.959 65.8257L242.202 57.3418L249.144 52.2984L242.827 57.4242L242.771 57.4698L242.789 57.5399Z" fill="#FFCC00" stroke="black"/>
<path d="M149.908 155.869L149.935 155.942H150.013H155.635H155.714L155.741 155.869L172.544 110.291L172.6 110.14H172.439H166.469H166.39L166.363 110.215L152.824 148.848L139.285 110.215L139.259 110.14H139.179H133.21H133.048L133.104 110.291L149.908 155.869ZM168.859 155.791L168.803 155.942H168.965H174.934H175.014L175.04 155.868L179.625 142.898H197.818L202.403 155.868L202.429 155.942H202.509H208.478H208.64L208.584 155.791L191.654 110.213L191.627 110.14H191.548H185.926H185.848L185.821 110.213L168.859 155.791ZM218.821 155.83V155.942H218.933H224.618H224.731V155.83V115.481H238.99H239.102V115.369V110.252V110.14H238.99H204.562H204.449V110.252V115.369V115.481H204.562H218.821V155.83ZM181.442 137.84L188.737 117.233L196.032 137.84H181.442Z" fill="#FFCC00" stroke="black"/>
</svg>
