<svg width="374" height="260" viewBox="0 0 374 260" fill="none" xmlns="http://www.w3.org/2000/svg">
<rect width="374" height="260" fill="white"/>
<rect x="72" y="15" width="230" height="230" rx="25" fill="url(#paint0_linear)"/>
<path d="M140.433 84.2332L284.023 84.2332V81.7141L140.433 81.7141V84.2332Z" fill="#EBEBF7"/>
<path d="M140.433 102.119L284.023 102.119V99.5998L140.433 99.5998V102.119Z" fill="#EBEBF7"/>
<path d="M284.275 121.516H89.2949V118.997H284.275V121.516Z" fill="#EBEBF7"/>
<path d="M89.2949 140.41H284.275V137.89H89.2949V140.41Z" fill="#EBEBF7"/>
<path d="M232.885 159.303H89.2949V156.784H232.885V159.303Z" fill="#EBEBF7"/>
<path d="M89.2949 178.196H232.885V175.677H89.2949V178.196Z" fill="#EBEBF7"/>
<path d="M107.662 80.9606C99.7657 82.7702 92.955 88.1332 92.955 96.1612C92.955 101.787 96.3439 105.538 101.345 105.538C106.609 105.538 109.867 101.327 109.867 96.0296C106.214 95.9309 103.78 93.9897 103.78 90.8311C103.78 87.9357 106.116 86.0932 108.945 85.4023L107.662 80.9606ZM126.844 80.9606C118.947 82.7702 112.17 88.1332 112.17 96.1612C112.17 101.787 115.526 105.538 120.527 105.538C125.824 105.538 129.048 101.327 129.048 96.0296C125.396 95.9309 122.961 93.9897 122.961 90.8311C122.961 87.9357 125.297 86.0932 128.127 85.4023L126.844 80.9606Z" fill="#30DB5B"/>
<path d="M248.764 174.562C256.66 172.752 263.438 167.422 263.438 159.394C263.438 153.768 260.082 149.984 255.081 149.984C249.784 149.984 246.559 154.196 246.559 159.493C250.178 159.625 252.646 161.566 252.646 164.724C252.646 167.587 250.277 169.429 247.447 170.153L248.764 174.562ZM267.781 174.562C275.677 172.752 282.455 167.422 282.455 159.394C282.455 153.768 279.099 149.984 274.098 149.984C268.801 149.984 265.576 154.196 265.576 159.493C269.196 159.625 271.663 161.566 271.663 164.724C271.663 167.587 269.294 169.429 266.465 170.153L267.781 174.562Z" fill="#30DB5B"/>
<path d="M302 15H72V245H302V15Z" fill="white"/>
<path fill-rule="evenodd" clip-rule="evenodd" d="M237.114 107.513C241.142 106.78 245 109.452 245.733 113.479C246.1 115.502 246.294 117.486 246.297 119.57C246.535 137.926 235.489 157.124 217.728 164.102L217.687 164.117C212.597 166.081 207.244 167.061 201.824 167.061C197.73 167.061 194.412 163.742 194.412 159.648C194.412 155.555 197.73 152.236 201.824 152.236C205.439 152.236 208.974 151.587 212.328 150.296C223.595 145.857 231.658 132.775 231.473 119.728L231.472 119.623C231.472 118.465 231.369 117.353 231.147 116.131C230.415 112.104 233.086 108.245 237.114 107.513Z" fill="black"/>
<path d="M220.354 137.412C230.588 137.412 238.885 129.116 238.885 118.882C238.885 108.648 230.588 100.352 220.354 100.352C210.121 100.352 201.824 108.648 201.824 118.882C201.824 129.116 210.121 137.412 220.354 137.412Z" fill="black"/>
<path fill-rule="evenodd" clip-rule="evenodd" d="M220.354 107.764C214.214 107.764 209.236 112.741 209.236 118.882C209.236 125.022 214.214 130 220.354 130C226.495 130 231.473 125.022 231.473 118.882C231.473 112.741 226.495 107.764 220.354 107.764ZM194.412 118.882C194.412 104.554 206.027 92.9395 220.354 92.9395C234.682 92.9395 246.297 104.554 246.297 118.882C246.297 133.209 234.682 144.824 220.354 144.824C206.027 144.824 194.412 133.209 194.412 118.882Z" fill="black"/>
<path fill-rule="evenodd" clip-rule="evenodd" d="M170.405 107.513C174.433 106.78 178.291 109.452 179.024 113.479C179.392 115.502 179.585 117.486 179.588 119.57C179.827 137.926 168.78 157.124 151.019 164.102L150.978 164.117C145.889 166.081 140.536 167.061 135.115 167.061C131.022 167.061 127.703 163.742 127.703 159.648C127.703 155.555 131.022 152.236 135.115 152.236C138.73 152.236 142.265 151.587 145.619 150.296C156.886 145.857 164.949 132.775 164.764 119.728L164.764 119.623C164.764 118.465 164.661 117.352 164.438 116.131C163.706 112.104 166.378 108.245 170.405 107.513Z" fill="black"/>
<path d="M153.646 137.412C163.879 137.412 172.176 129.116 172.176 118.882C172.176 108.648 163.879 100.352 153.646 100.352C143.412 100.352 135.115 108.648 135.115 118.882C135.115 129.116 143.412 137.412 153.646 137.412Z" fill="black"/>
<path fill-rule="evenodd" clip-rule="evenodd" d="M153.646 107.764C147.505 107.764 142.527 112.741 142.527 118.882C142.527 125.022 147.505 130 153.646 130C159.786 130 164.764 125.022 164.764 118.882C164.764 112.741 159.786 107.764 153.646 107.764ZM127.703 118.882C127.703 104.554 139.318 92.9395 153.646 92.9395C167.973 92.9395 179.588 104.554 179.588 118.882C179.588 133.209 167.973 144.824 153.646 144.824C139.318 144.824 127.703 133.209 127.703 118.882Z" fill="black"/>
<defs>
<linearGradient id="paint0_linear" x1="187" y1="15" x2="187" y2="245" gradientUnits="userSpaceOnUse">
<stop stop-color="#444446"/>
<stop offset="1" stop-color="#242426"/>
</linearGradient>
</defs>
</svg>
