<svg width="1024" height="1024" viewBox="0 0 1024 1024" fill="none" xmlns="http://www.w3.org/2000/svg">
<rect width="1024" height="1024" fill="white"/>
<path fill-rule="evenodd" clip-rule="evenodd" d="M735.115 411.882C753.048 408.622 770.227 420.515 773.488 438.447C775.125 447.452 775.986 456.286 775.999 465.562C777.062 547.29 727.882 632.76 648.807 663.826L648.622 663.896C625.964 672.641 602.132 677 577.999 677C559.773 677 544.999 662.226 544.999 644C544.999 625.774 559.773 611 577.999 611C594.093 611 609.831 608.109 624.763 602.361C674.927 582.6 710.824 524.355 710.002 466.269L709.999 465.8C709.999 460.642 709.54 455.692 708.55 450.254C705.29 432.322 717.183 415.143 735.115 411.882Z" fill="black"/>
<path d="M660.5 545C706.063 545 743 508.063 743 462.5C743 416.937 706.063 380 660.5 380C614.937 380 578 416.937 578 462.5C578 508.063 614.937 545 660.5 545Z" fill="black"/>
<path fill-rule="evenodd" clip-rule="evenodd" d="M660.5 413C633.163 413 611 435.162 611 462.5C611 489.837 633.163 512 660.5 512C687.837 512 710 489.837 710 462.5C710 435.162 687.837 413 660.5 413ZM545 462.5C545 398.711 596.711 347 660.5 347C724.289 347 776 398.711 776 462.5C776 526.289 724.289 578 660.5 578C596.711 578 545 526.289 545 462.5Z" fill="black"/>
<path fill-rule="evenodd" clip-rule="evenodd" d="M438.117 411.882C456.049 408.622 473.228 420.515 476.489 438.447C478.126 447.452 478.987 456.286 479 465.562C480.063 547.29 430.883 632.76 351.807 663.826L351.623 663.896C328.965 672.641 305.132 677 281 677C262.775 677 248 662.226 248 644C248 625.774 262.775 611 281 611C297.095 611 312.831 608.109 327.766 602.36C377.927 582.6 413.825 524.355 413.003 466.269L413 465.8C413 460.642 412.541 455.689 411.552 450.254C408.292 432.322 420.186 415.143 438.117 411.882Z" fill="black"/>
<path d="M363.5 545C409.063 545 446 508.063 446 462.5C446 416.936 409.063 380 363.5 380C317.937 380 281 416.936 281 462.5C281 508.063 317.937 545 363.5 545Z" fill="black"/>
<path fill-rule="evenodd" clip-rule="evenodd" d="M363.5 413C336.162 413 314 435.162 314 462.5C314 489.837 336.162 512 363.5 512C390.838 512 413 489.837 413 462.5C413 435.162 390.838 413 363.5 413ZM248 462.5C248 398.711 299.711 347 363.5 347C427.289 347 479 398.711 479 462.5C479 526.289 427.289 578 363.5 578C299.711 578 248 526.289 248 462.5Z" fill="black"/>
</svg>
